<?xml version="1.0" encoding="UTF-8" standalone="no"?>
<svg xmlns:dc="http://purl.org/dc/elements/1.1/" xmlns:cc="http://creativecommons.org/ns#" xmlns:rdf="http://www.w3.org/1999/02/22-rdf-syntax-ns#" xmlns:svg="http://www.w3.org/2000/svg" xmlns="http://www.w3.org/2000/svg" id="svg68" xml:space="preserve" viewBox="0 0 128 172" height="172" width="128" version="1.1">
  <metadata id="metadata72">
    <rdf:RDF>
      <cc:Work rdf:about="">
        <dc:format>image/svg+xml</dc:format>
        <dc:type rdf:resource="http://purl.org/dc/dcmitype/StillImage" />
      </cc:Work>
    </rdf:RDF>
  </metadata>
  <desc id="desc2">Created with Fabric.js 2.4.6</desc>
  <defs id="defs4" />
  <g id="g66" transform="matrix(1.68,0,0,1.68,64.47,86.34)">
    <g id="g8" transform="matrix(1.11,0,0,1.11,-13.75,-41.41)">
      <path id="path6" d="m 32.666,15.573 c -2.908,0 -5.274,-2.364 -5.274,-5.271 0,-2.394 3.162,-7.155 4.131,-8.558 L 32.667,0.09 33.81,1.744 c 0.969,1.403 4.129,6.164 4.129,8.558 -10e-4,2.907 -2.367,5.271 -5.273,5.271 z M 32.665,5.069 c -1.341,2.155 -2.495,4.406 -2.495,5.232 0,1.375 1.119,2.493 2.496,2.493 1.375,0 2.493,-1.118 2.493,-2.493 0,-0.825 -1.154,-3.077 -2.494,-5.232 z" transform="translate(-32.67,-7.83)" style="opacity:1;fill:#1b4c21;fill-rule:nonzero;stroke:none;stroke-width:1;stroke-linecap:butt;stroke-linejoin:miter;stroke-miterlimit:4;stroke-dasharray:none;stroke-dashoffset:0" />
    </g>
    <g id="g12" transform="matrix(1.11,0,0,1.11,21.78,-26.19)">
      <path id="path10" d="m 64.576,29.241 c -2.907,0 -5.272,-2.366 -5.272,-5.274 0,-2.391 3.16,-7.153 4.129,-8.556 l 1.144,-1.656 1.143,1.656 c 0.969,1.402 4.13,6.165 4.13,8.556 -10e-4,2.908 -2.367,5.274 -5.274,5.274 z m 0,-10.505 c -1.34,2.154 -2.494,4.406 -2.494,5.23 0,1.377 1.119,2.496 2.494,2.496 1.375,0 2.494,-1.119 2.494,-2.496 0,-0.825 -1.154,-3.076 -2.494,-5.23 z" transform="translate(-64.58,-21.5)" style="opacity:1;fill:#1b4c21;fill-rule:nonzero;stroke:none;stroke-width:1;stroke-linecap:butt;stroke-linejoin:miter;stroke-miterlimit:4;stroke-dasharray:none;stroke-dashoffset:0" />
    </g>
    <g id="g16" transform="matrix(1.11,0,0,1.11,-0.03,-22.65)">
      <path id="path14" d="m 54.71,24.701 c 0,7.598 -4.349,13.755 -9.709,13.755 -5.361,0 -9.709,-6.157 -9.709,-13.755 0,-7.594 9.709,-13.752 9.709,-13.752 0,0 9.709,6.158 9.709,13.752 z" transform="translate(-45,-24.7)" style="opacity:1;fill:#1b4c21;fill-rule:nonzero;stroke:none;stroke-width:1;stroke-linecap:butt;stroke-linejoin:miter;stroke-miterlimit:4;stroke-dasharray:none;stroke-dashoffset:0" />
    </g>
    <g id="g20" transform="matrix(1.11,0,0,1.11,21.74,-0.84)">
      <path id="path18" d="m 64.576,34.57 c -7.597,0 -13.756,4.349 -13.756,9.71 0,5.362 6.159,9.708 13.756,9.708 7.596,0 13.751,-9.708 13.751,-9.708 0,0 -6.155,-9.71 -13.751,-9.71 z" transform="translate(-64.57,-44.28)" style="opacity:1;fill:#1b4c21;fill-rule:nonzero;stroke:none;stroke-width:1;stroke-linecap:butt;stroke-linejoin:miter;stroke-miterlimit:4;stroke-dasharray:none;stroke-dashoffset:0" />
    </g>
    <g id="g24" transform="matrix(1.11,0,0,1.11,0,0.66)">
      <path id="rect22" d="M -1.39,-20.950001 H 1.39 V 20.950001 H -1.39 Z" style="opacity:1;fill:#1b4c21;fill-rule:nonzero;stroke:none;stroke-width:1;stroke-linecap:butt;stroke-linejoin:miter;stroke-miterlimit:4;stroke-dasharray:none;stroke-dashoffset:0" />
    </g>
    <g id="g28" transform="matrix(1.11,0,0,1.11,-3.26,4.04)">
      <path id="path26" d="m 45.001,54.407 c -0.768,0 -1.39,-0.621 -1.39,-1.389 0,-3.983 -2.029,-7.35 -4.432,-7.35 -0.767,0 -1.389,-0.621 -1.389,-1.389 0,-0.767 0.622,-1.389 1.389,-1.389 4.043,0 7.21,4.448 7.21,10.127 10e-4,0.769 -0.621,1.39 -1.388,1.39 z" transform="translate(-42.09,-48.65)" style="opacity:1;fill:#1b4c21;fill-rule:nonzero;stroke:none;stroke-width:1;stroke-linecap:butt;stroke-linejoin:miter;stroke-miterlimit:4;stroke-dasharray:none;stroke-dashoffset:0" />
    </g>
    <g id="g32" transform="matrix(1.11,0,0,1.11,3.22,4.04)">
      <path id="path30" d="m 45.001,54.407 c -0.768,0 -1.39,-0.621 -1.39,-1.389 0,-5.679 3.167,-10.127 7.209,-10.127 0.768,0 1.39,0.622 1.39,1.389 0,0.768 -0.622,1.389 -1.39,1.389 -2.401,0 -4.431,3.366 -4.431,7.35 10e-4,0.767 -0.621,1.388 -1.388,1.388 z" transform="translate(-47.91,-48.65)" style="opacity:1;fill:#1b4c21;fill-rule:nonzero;stroke:none;stroke-width:1;stroke-linecap:butt;stroke-linejoin:miter;stroke-miterlimit:4;stroke-dasharray:none;stroke-dashoffset:0" />
    </g>
    <g id="g36" transform="matrix(1.11,0,0,1.11,-0.07,26.75)">
      <path id="path34" d="m 64.576,69.035 c 0,1.339 -1.086,2.427 -2.428,2.427 H 27.852 c -1.34,0 -2.425,-1.088 -2.425,-2.427 v 0 c 0,-1.344 1.085,-2.428 2.425,-2.428 h 34.297 c 1.341,0 2.427,1.084 2.427,2.428 z" transform="translate(-45,-69.03)" style="opacity:1;fill:#1b4c21;fill-rule:nonzero;stroke:none;stroke-width:1;stroke-linecap:butt;stroke-linejoin:miter;stroke-miterlimit:4;stroke-dasharray:none;stroke-dashoffset:0" />
    </g>
    <g id="g40" transform="matrix(1.11,0,0,1.11,-0.1,40.37)">
      <path id="polygon38" d="m -14.92,-5.99 2.63,-2.63 H 12.38 L 14.92,-5.37 12.38,5.99 9.75,8.62 H -9.67 l -2.62,-2.63 z" style="opacity:1;fill:#1b4c21;fill-rule:nonzero;stroke:none;stroke-width:1;stroke-linecap:butt;stroke-linejoin:miter;stroke-miterlimit:4;stroke-dasharray:none;stroke-dashoffset:0" />
    </g>
    <g id="g44" transform="matrix(1.11,0,0,1.11,-10.82,47.06)">
      <path id="circle42" d="M 2.6270001,0 A 2.6270001,2.6270001 0 0 1 0,2.6270001 2.6270001,2.6270001 0 0 1 -2.6270001,0 2.6270001,2.6270001 0 0 1 0,-2.6270001 2.6270001,2.6270001 0 0 1 2.6270001,0 Z" style="opacity:1;fill:#1b4c21;fill-rule:nonzero;stroke:none;stroke-width:1;stroke-linecap:butt;stroke-linejoin:miter;stroke-miterlimit:4;stroke-dasharray:none;stroke-dashoffset:0" />
    </g>
    <g id="g48" transform="matrix(1.11,0,0,1.11,-13.75,33.73)">
      <path id="path46" d="m 35.292,75.304 c 0,1.452 -1.176,2.627 -2.626,2.627 -1.453,0 -2.631,-1.175 -2.631,-2.627 0,-1.453 1.178,-2.63 2.631,-2.63 1.45,0 2.626,1.177 2.626,2.63 z" transform="translate(-32.66,-75.3)" style="opacity:1;fill:#1b4c21;fill-rule:nonzero;stroke:none;stroke-width:1;stroke-linecap:butt;stroke-linejoin:miter;stroke-miterlimit:4;stroke-dasharray:none;stroke-dashoffset:0" />
    </g>
    <g id="g52" transform="matrix(1.11,0,0,1.11,13.72,33.73)">
      <path id="circle50" d="M 2.6270001,0 A 2.6270001,2.6270001 0 0 1 0,2.6270001 2.6270001,2.6270001 0 0 1 -2.6270001,0 2.6270001,2.6270001 0 0 1 0,-2.6270001 2.6270001,2.6270001 0 0 1 2.6270001,0 Z" style="opacity:1;fill:#1b4c21;fill-rule:nonzero;stroke:none;stroke-width:1;stroke-linecap:butt;stroke-linejoin:miter;stroke-miterlimit:4;stroke-dasharray:none;stroke-dashoffset:0" />
    </g>
    <g id="g56" transform="matrix(1.11,0,0,1.11,10.8,47.06)">
      <path id="circle54" d="M 2.628,0 A 2.628,2.628 0 0 1 0,2.628 2.628,2.628 0 0 1 -2.628,0 2.628,2.628 0 0 1 0,-2.628 2.628,2.628 0 0 1 2.628,0 Z" style="opacity:1;fill:#1b4c21;fill-rule:nonzero;stroke:none;stroke-width:1;stroke-linecap:butt;stroke-linejoin:miter;stroke-miterlimit:4;stroke-dasharray:none;stroke-dashoffset:0" />
    </g>
    <g id="g60" transform="matrix(1.11,0,0,1.11,-14.06,-7.46)">
      <path id="path58" d="m 32.393,47.563 c 3.466,0 6.288,-2.819 6.288,-6.286 0,-2.855 -3.769,-8.536 -4.924,-10.208 l -1.364,-1.975 -1.364,1.975 c -1.156,1.673 -4.928,7.353 -4.928,10.208 0,3.467 2.823,6.286 6.292,6.286 z M 32.392,35.036 c 1.598,2.57 2.975,5.256 2.975,6.242 0,1.639 -1.333,2.973 -2.974,2.973 -1.643,0 -2.978,-1.334 -2.978,-2.973 0.001,-0.986 1.377,-3.671 2.977,-6.242 z" transform="translate(-32.39,-38.33)" style="opacity:1;fill:#1b4c21;fill-rule:nonzero;stroke:none;stroke-width:1;stroke-linecap:butt;stroke-linejoin:miter;stroke-miterlimit:4;stroke-dasharray:none;stroke-dashoffset:0" />
    </g>
    <g id="g64" transform="matrix(1.11,0,0,1.11,-21.84,-0.84)">
      <path id="path62" d="m 37.999,40.353 c 0,0.014 0.005,0.032 0.005,0.047 0,2.944 -2.395,5.339 -5.338,5.339 -2.944,0 -5.34,-2.395 -5.34,-5.339 0,-1.387 1.05,-3.542 2.123,-5.402 -1.272,-0.274 -2.622,-0.427 -4.022,-0.427 -7.598,0 -13.754,9.71 -13.754,9.71 0,0 6.156,9.708 13.754,9.708 7.594,0 13.753,-4.346 13.753,-9.708 0,-1.4 -0.429,-2.724 -1.181,-3.928 z" transform="translate(-25.43,-44.28)" style="opacity:1;fill:#1b4c21;fill-rule:nonzero;stroke:none;stroke-width:1;stroke-linecap:butt;stroke-linejoin:miter;stroke-miterlimit:4;stroke-dasharray:none;stroke-dashoffset:0" />
    </g>
  </g>
</svg>